PathFileType	4	(X/Y/Z)	/home/nbianco/projects/addbio/data/HamnerRunning2013/Processed/subject10//results/MarkerData/run500.trc
DataRate	CameraRate	NumFrames	NumMarkers	Units	OrigDataRate	OrigDataStartFrame	OrigNumFrames
100	100	10	42	m	100	151	242
Frame#	Time	C7			CLAV			LACR			LASI			LCAL			LFAradius			LFAsuperior			LFAulna			LLEL			LMEL			LMT5			LPSI			LTB1			LTB2			LTB3			LTH1			LTH2			LTH3			LTOE			LUA1			LUA2			LUA3			RACR			RASI			RCAL			RFAradius			RFAsuperior			RFAulna			RLEL			RMEL			RMT5			RPSI			RTB1			RTB2			RTB3			RTH1			RTH2			RTH3			RTOE			RUA1			RUA2			RUA3		
		X1	Y1	Z1	X2	Y2	Z2	X3	Y3	Z3	X4	Y4	Z4	X5	Y5	Z5	X6	Y6	Z6	X7	Y7	Z7	X8	Y8	Z8	X9	Y9	Z9	X10	Y10	Z10	X11	Y11	Z11	X12	Y12	Z12	X13	Y13	Z13	X14	Y14	Z14	X15	Y15	Z15	X16	Y16	Z16	X17	Y17	Z17	X18	Y18	Z18	X19	Y19	Z19	X20	Y20	Z20	X21	Y21	Z21	X22	Y22	Z22	X23	Y23	Z23	X24	Y24	Z24	X25	Y25	Z25	X26	Y26	Z26	X27	Y27	Z27	X28	Y28	Z28	X29	Y29	Z29	X30	Y30	Z30	X31	Y31	Z31	X32	Y32	Z32	X33	Y33	Z33	X34	Y34	Z34	X35	Y35	Z35	X36	Y36	Z36	X37	Y37	Z37	X38	Y38	Z38	X39	Y39	Z39	X40	Y40	Z40	X41	Y41	Z41	X42	Y42	Z42

152	3.56	0.809213	1.47513	-0.337662	0.916189	1.34775	-0.330305	0.83568	1.43008	-0.486119	0.821214	0.956389	-0.429159	0.976638	0.0945889	-0.309857	0.789748	1.10164	-0.585512	0.696823	1.20326	-0.636233	0.747949	1.08142	-0.641446	0.595153	1.25955	-0.627868	0.577509	1.23196	-0.560793	1.15557	0.0740439	-0.400702	0.656078	1.00769	-0.366607	1.02886	0.421536	-0.359151	0.988856	0.327127	-0.411493	1.04556	0.231141	-0.336288	0.834016	0.775128	-0.478888	0.9308	0.707994	-0.456673	0.928124	0.588041	-0.43009	1.19013	0.13121	-0.311566	0.726843	1.38091	-0.567955	0.66887	1.34067	-0.515615	0.663506	1.31316	-0.601289	0.850186	1.43362	-0.204596	0.812174	0.962681	-0.187964	0.23323	0.601192	-0.264985	0.975373	1.17909	-0.0980865	0.894709	1.20141	0.0098267	0.980147	1.12209	-0.0587588	0.785075	1.21567	0.0528133	0.742819	1.16996	0.00473389	0.0747953	0.479149	-0.220411	0.656217	1.01436	-0.268286	0.473339	0.454769	-0.218534	0.397385	0.503381	-0.179967	0.28895	0.494121	-0.247158	0.683725	0.732903	-0.13169	0.714378	0.633347	-0.136775	0.625127	0.567613	-0.151876	0.10367	0.427968	-0.313802	0.81966	1.36397	-0.0818563	0.750345	1.30941	-0.0655334	0.800621	1.27294	0.00238204
153	3.57	0.805779	1.46821	-0.338764	0.915523	1.34246	-0.329402	0.835117	1.42431	-0.486595	0.820653	0.9513	-0.431486	0.942089	0.0955801	-0.301617	0.803833	1.09223	-0.590229	0.709009	1.1905	-0.644025	0.764471	1.06867	-0.646506	0.605854	1.2438	-0.638043	0.586389	1.21522	-0.571917	1.11558	0.0567404	-0.398192	0.657669	1.00175	-0.36673	1.01587	0.407802	-0.355697	0.972026	0.316038	-0.406916	1.02201	0.218037	-0.329537	0.832647	0.768569	-0.479628	0.927513	0.699028	-0.456746	0.920025	0.578681	-0.429031	1.15768	0.100966	-0.305181	0.729619	1.37012	-0.57148	0.67064	1.32777	-0.523971	0.670604	1.2989	-0.609239	0.847441	1.42819	-0.204279	0.815609	0.956125	-0.190132	0.26878	0.623278	-0.268521	0.96135	1.15811	-0.0891066	0.877582	1.19076	0.0142926	0.960904	1.1031	-0.0460594	0.767472	1.21368	0.0518246	0.724943	1.16942	0.00282094	0.102284	0.517581	-0.213954	0.657678	1.00666	-0.266555	0.494782	0.454929	-0.215652	0.422856	0.511026	-0.177579	0.314809	0.511543	-0.245806	0.693817	0.723908	-0.130775	0.728381	0.626085	-0.133813	0.642625	0.556632	-0.148684	0.123985	0.459798	-0.305601	0.810855	1.35914	-0.0821683	0.740213	1.30679	-0.0678988	0.788172	1.26758	0.000625464
154	3.58	0.802592	1.46105	-0.339628	0.915124	1.33693	-0.328378	0.834693	1.41868	-0.487213	0.818009	0.94656	-0.434119	0.903922	0.0999221	-0.293219	0.818569	1.08141	-0.594698	0.722748	1.17674	-0.651248	0.782006	1.05538	-0.651941	0.618134	1.2274	-0.648203	0.597229	1.19759	-0.583282	1.07266	0.0494466	-0.394739	0.656533	0.996434	-0.366676	1.00534	0.400722	-0.351826	0.957865	0.311196	-0.402408	0.997227	0.211949	-0.321853	0.829406	0.762551	-0.482066	0.923029	0.690496	-0.458644	0.913037	0.572585	-0.429601	1.12024	0.0797323	-0.29811	0.732926	1.35843	-0.575068	0.673507	1.31366	-0.53256	0.679073	1.28361	-0.61705	0.844614	1.42319	-0.20332	0.818388	0.948947	-0.193091	0.307157	0.639811	-0.271703	0.94494	1.13603	-0.0790851	0.858949	1.17959	0.0190205	0.938979	1.08387	-0.0323634	0.749205	1.21166	0.0499644	0.706162	1.16906	0.000147221	0.136726	0.548813	-0.206349	0.657366	0.998653	-0.26513	0.51979	0.454086	-0.213152	0.451536	0.515989	-0.175293	0.34462	0.525113	-0.244603	0.704793	0.715154	-0.130168	0.743117	0.619053	-0.131446	0.66201	0.545821	-0.145804	0.149647	0.48646	-0.296706	0.801722	1.35384	-0.0822428	0.729461	1.30366	-0.0705626	0.775151	1.26219	-0.00143655
155	3.59	0.800875	1.4551	-0.340175	0.914852	1.33184	-0.327207	0.834223	1.4137	-0.488074	0.813229	0.942877	-0.436984	0.861318	0.104442	-0.287305	0.833987	1.06935	-0.598585	0.738563	1.16238	-0.6571	0.800916	1.04194	-0.657342	0.632312	1.21069	-0.65808	0.610119	1.1796	-0.5946	1.02712	0.0494523	-0.391687	0.652652	0.991482	-0.365729	0.995129	0.399629	-0.347812	0.943245	0.311747	-0.399703	0.969139	0.211277	-0.315997	0.823641	0.757967	-0.484717	0.917368	0.686023	-0.461947	0.908601	0.570865	-0.431836	1.07762	0.0700801	-0.29321	0.736936	1.34628	-0.578942	0.67765	1.29884	-0.54111	0.689073	1.26801	-0.624431	0.841682	1.41912	-0.201603	0.819787	0.941814	-0.197017	0.347576	0.650705	-0.273576	0.926069	1.11385	-0.0684061	0.838745	1.16843	0.0235426	0.914222	1.06531	-0.0183596	0.730489	1.20994	0.0471175	0.68701	1.16938	-0.00372476	0.176114	0.571577	-0.198154	0.655168	0.990835	-0.263904	0.548702	0.452427	-0.21175	0.483287	0.517784	-0.173488	0.377848	0.534507	-0.243476	0.717158	0.707413	-0.129935	0.759588	0.61298	-0.130415	0.684617	0.536054	-0.143274	0.179946	0.507192	-0.288088	0.793015	1.34854	-0.0820812	0.718658	1.30065	-0.0736899	0.761487	1.25753	-0.00349417
156	3.6	0.801017	1.45101	-0.340444	0.914438	1.32775	-0.325699	0.833494	1.40964	-0.489045	0.807376	0.940704	-0.439952	0.814889	0.107311	-0.285378	0.850611	1.05679	-0.601683	0.756702	1.14825	-0.661232	0.82177	1.02883	-0.662087	0.6486	1.19432	-0.667287	0.624819	1.16192	-0.605429	0.979563	0.0515128	-0.390292	0.647545	0.986949	-0.363576	0.981607	0.399033	-0.344704	0.923639	0.313539	-0.399277	0.936364	0.211588	-0.313693	0.816217	0.755612	-0.486429	0.910224	0.686738	-0.465158	0.904743	0.571307	-0.434509	1.03112	0.0683776	-0.291749	0.741677	1.33434	-0.582594	0.683019	1.28386	-0.549155	0.70048	1.25322	-0.630892	0.839075	1.41586	-0.199261	0.819558	0.935476	-0.201418	0.38857	0.65687	-0.27385	0.904806	1.09302	-0.0576397	0.81704	1.15811	0.0274561	0.886493	1.04848	-0.005093	0.711551	1.20913	0.0433572	0.668196	1.171	-0.0090224	0.218367	0.584897	-0.18981	0.651884	0.984013	-0.262752	0.581775	0.450377	-0.212078	0.518098	0.516608	-0.172386	0.414078	0.539773	-0.242278	0.730968	0.701027	-0.130068	0.778869	0.608859	-0.131107	0.71152	0.528193	-0.141092	0.214333	0.52078	-0.280162	0.785543	1.34384	-0.0817937	0.708611	1.29826	-0.0777683	0.747201	1.25424	-0.00560104
157	3.61	0.802177	1.44829	-0.340367	0.913709	1.32468	-0.323822	0.832695	1.40648	-0.489777	0.801738	0.94005	-0.443068	0.766674	0.108469	-0.28679	0.869236	1.0454	-0.603652	0.776815	1.13559	-0.663925	0.845004	1.01738	-0.665513	0.666795	1.17919	-0.6753	0.640976	1.14537	-0.615129	0.931267	0.0522252	-0.390801	0.642806	0.983443	-0.360719	0.962339	0.393415	-0.344081	0.897426	0.312208	-0.399856	0.899247	0.2092	-0.314024	0.808657	0.755083	-0.487086	0.901416	0.688877	-0.466843	0.897355	0.570057	-0.435955	0.983105	0.0688668	-0.292859	0.746923	1.3234	-0.584791	0.689424	1.26926	-0.555924	0.712901	1.2404	-0.635924	0.837487	1.41292	-0.196718	0.818066	0.930558	-0.205292	0.428149	0.659592	-0.272801	0.881449	1.07504	-0.0474525	0.794105	1.14958	0.0305501	0.856031	1.03434	0.00606844	0.692676	1.20994	0.0388238	0.650239	1.17443	-0.0156046	0.261709	0.588119	-0.181632	0.648574	0.979	-0.26184	0.618774	0.448494	-0.214005	0.555782	0.513368	-0.171978	0.452744	0.541209	-0.241008	0.745897	0.696228	-0.130538	0.801331	0.607761	-0.133246	0.742706	0.523077	-0.139446	0.251825	0.526003	-0.272993	0.779643	1.34027	-0.0815559	0.700021	1.29689	-0.0833594	0.732516	1.2528	-0.00811662
158	3.62	0.803009	1.4461	-0.33965	0.912751	1.32222	-0.321944	0.832425	1.40406	-0.489883	0.796962	0.940311	-0.446363	0.718742	0.108756	-0.289499	0.890222	1.03749	-0.603912	0.798009	1.12589	-0.665682	0.870545	1.00971	-0.667084	0.686181	1.16629	-0.681646	0.658397	1.13078	-0.623048	0.883561	0.0514857	-0.392342	0.639086	0.98162	-0.358411	0.937268	0.381818	-0.346057	0.866849	0.306334	-0.399582	0.859268	0.203619	-0.314454	0.801935	0.754628	-0.48718	0.891554	0.6866	-0.466402	0.88397	0.564743	-0.435345	0.935516	0.0683369	-0.29468	0.752299	1.31418	-0.584585	0.696747	1.2555	-0.560594	0.725786	1.23027	-0.639275	0.837244	1.40998	-0.19448	0.815816	0.927345	-0.207775	0.464312	0.659599	-0.270974	0.856599	1.0611	-0.0384921	0.770411	1.14368	0.0326792	0.823797	1.02358	0.0138315	0.674212	1.2129	0.0335974	0.633358	1.17991	-0.0231487	0.304783	0.58127	-0.173929	0.645725	0.976132	-0.261563	0.65878	0.447446	-0.216648	0.59554	0.509422	-0.172037	0.492703	0.539266	-0.239838	0.761429	0.693466	-0.131392	0.826135	0.610572	-0.136056	0.776874	0.521608	-0.138716	0.291046	0.522142	-0.266626	0.774848	1.33814	-0.0815438	0.693084	1.29696	-0.0904373	0.717903	1.25357	-0.0114051
159	3.63	0.802829	1.44414	-0.338087	0.91183	1.31993	-0.320585	0.833221	1.40224	-0.489179	0.79304	0.940379	-0.449425	0.672125	0.108997	-0.291648	0.912926	1.03509	-0.601889	0.819268	1.12032	-0.666579	0.897689	1.00776	-0.666405	0.705812	1.15626	-0.686171	0.677022	1.11877	-0.628881	0.837075	0.0506894	-0.393724	0.636273	0.981493	-0.357899	0.908131	0.367724	-0.348333	0.834959	0.297883	-0.397684	0.818118	0.196925	-0.313379	0.795887	0.752198	-0.487043	0.881445	0.677094	-0.46416	0.865712	0.555813	-0.433188	0.889122	0.0669237	-0.29586	0.757634	1.30714	-0.582412	0.705111	1.24323	-0.562729	0.738615	1.22289	-0.641058	0.837874	1.40721	-0.192824	0.813091	0.925745	-0.208683	0.495639	0.656597	-0.268929	0.831145	1.0518	-0.0312962	0.746614	1.14096	0.0335979	0.791355	1.01667	0.0176156	0.656486	1.21817	0.0276965	0.61755	1.18738	-0.0313853	0.346683	0.565308	-0.167083	0.643096	0.975032	-0.262141	0.700428	0.448023	-0.21913	0.635937	0.506128	-0.172326	0.532234	0.534491	-0.23898	0.776967	0.693289	-0.132744	0.851499	0.61774	-0.138771	0.812033	0.524681	-0.139223	0.330985	0.509117	-0.261202	0.770136	1.33762	-0.0818852	0.687292	1.29898	-0.0981	0.703908	1.25666	-0.0155735
160	3.64	0.802019	1.4427	-0.335994	0.911148	1.31773	-0.319869	0.835072	1.40103	-0.487788	0.789878	0.939207	-0.451451	0.626877	0.109649	-0.29252	0.935906	1.03896	-0.597398	0.839848	1.11928	-0.666144	0.925295	1.01193	-0.663167	0.724974	1.14922	-0.689122	0.69662	1.10959	-0.632855	0.791695	0.0505991	-0.394349	0.634158	0.982359	-0.359536	0.877221	0.355252	-0.348137	0.802731	0.289996	-0.395003	0.777217	0.191399	-0.311336	0.789425	0.747008	-0.486698	0.870781	0.662658	-0.461218	0.845458	0.545422	-0.430724	0.843812	0.065796	-0.29616	0.763244	1.30241	-0.580034	0.714749	1.23337	-0.56259	0.751041	1.21792	-0.641628	0.838389	1.40511	-0.191642	0.810058	0.925441	-0.208536	0.521692	0.649536	-0.267082	0.806093	1.04717	-0.0262381	0.723481	1.14164	0.033019	0.760319	1.01387	0.0179036	0.639675	1.22552	0.0211713	0.602719	1.19658	-0.0401165	0.387063	0.541855	-0.161486	0.640335	0.974942	-0.263426	0.742368	0.450991	-0.221209	0.675456	0.504359	-0.172822	0.569761	0.5274	-0.238575	0.791927	0.695935	-0.134617	0.87559	0.629136	-0.141047	0.846375	0.532854	-0.141004	0.371689	0.48739	-0.256831	0.764607	1.33874	-0.0826417	0.681653	1.3033	-0.105134	0.690787	1.26186	-0.0204127
161	3.65	0.801405	1.44211	-0.334152	0.910695	1.31601	-0.31931	0.83742	1.40057	-0.486032	0.787601	0.936536	-0.451928	0.582693	0.110864	-0.292399	0.957731	1.04822	-0.590773	0.859351	1.12217	-0.663962	0.952146	1.02099	-0.657216	0.743432	1.14488	-0.690956	0.716648	1.10312	-0.635528	0.747029	0.0509266	-0.39443	0.632713	0.983439	-0.362583	0.846142	0.346063	-0.344924	0.769387	0.284484	-0.392961	0.737353	0.187893	-0.309852	0.781318	0.740227	-0.486181	0.858142	0.648282	-0.459005	0.824879	0.535727	-0.428978	0.799262	0.0652859	-0.296035	0.769797	1.29986	-0.579203	0.725585	1.22683	-0.561151	0.762997	1.21496	-0.641408	0.838004	1.40407	-0.190584	0.807045	0.926151	-0.208103	0.54313	0.637281	-0.265641	0.782309	1.0468	-0.0234826	0.701698	1.14554	0.0308321	0.731808	1.01518	0.0158684	0.623769	1.23449	0.0141583	0.58876	1.20704	-0.0491075	0.426303	0.512534	-0.157427	0.637624	0.975336	-0.265136	0.783577	0.456757	-0.223176	0.713151	0.504253	-0.173748	0.604769	0.518305	-0.238628	0.805927	0.70123	-0.136837	0.897306	0.64416	-0.143004	0.878737	0.54603	-0.143826	0.414185	0.458067	-0.253543	0.758016	1.34141	-0.0838209	0.675311	1.30971	-0.110899	0.678344	1.26861	-0.0255358
